<svg width="53" height="51" viewBox="0 0 53 51" fill="none" xmlns="http://www.w3.org/2000/svg">
<path d="M52.5 25.5C52.5 39.1458 41.7913 50.2233 28.5 50.4949V25.5V25.4176V25.3356V25.2539V25.1725V25.0915V25.0108V24.9304V24.8503V24.7705V24.6911V24.612V24.5332V24.4547V24.3765V24.2986V24.2211V24.1438V24.0669V23.9903V23.9139V23.8379V23.7622V23.6868V23.6117V23.5369V23.4624V23.3882V23.3143V23.2407V23.1674V23.0944V23.0216V22.9492V22.8771V22.8052V22.7336V22.6624V22.5914V22.5207V22.4502V22.3801V22.3102V22.2406V22.1713V22.1023V22.0336V21.9651V21.8969V21.829V21.7613V21.6939V21.6268V21.56V21.4934V21.4271V21.361V21.2952V21.2297V21.1644V21.0994V21.0347V20.9702V20.906V20.842V20.7782V20.7148V20.6516V20.5886V20.5259V20.4634V20.4012V20.3392V20.2775V20.216V20.1547V20.0937V20.0329V19.9724V19.9121V19.852V19.7922V19.7326V19.6733V19.6141V19.5553V19.4966V19.4382V19.3799V19.322V19.2642V19.2067V19.1493V19.0922V19.0354V18.9787V18.9223V18.866V18.81V18.7542V18.6986V18.6433V18.5881V18.5332V18.4784V18.4239V18.3695V18.3154V18.2615V18.2078V18.1542V18.1009V18.0478V17.9949V17.9421V17.8896V17.8372V17.7851V17.7331V17.6814V17.6298V17.5784V17.5272V17.4762V17.4253V17.3747V17.3242V17.2739V17.2238V17.1738V17.1241V17.0745V17.0251V16.9759V16.9268V16.8779V16.8292V16.7806V16.7323V16.684V16.636V16.5881V16.5404V16.4928V16.4454V16.3982V16.3511V16.3041V16.2574V16.2107V16.1643V16.118V16.0718V16.0258V15.9799V15.9342V15.8886V15.8432V15.7979V15.7528V15.7078V15.6629V15.6182V15.5736V15.5292V15.4849V15.4407V15.3967V15.3528V15.309V15.2654V15.2218V15.1784V15.1352V15.092V15.049V15.0061V14.9634V14.9207V14.8782V14.8358V14.7935V14.7513V14.7092V14.6673V14.6254V14.5837V14.5421V14.5006V14.4592V14.4179V14.3767V14.3356V14.2946V14.2537V14.2129V14.1722V14.1316V14.0911V14.0508V14.0104V13.9702V13.9301V13.8901V13.8502V13.8103V13.7705V13.7309V13.6913V13.6518V13.6123V13.573V13.5337V13.4946V13.4555V13.4164V13.3775V13.3386V13.2998V13.261V13.2224V13.1838V13.1453V13.1068V13.0684V13.0301V12.9918V12.9536V12.9155V12.8774V12.8394V12.8014V12.7635V12.7256V12.6878V12.6501V12.6124V12.5747V12.5371V12.4996V12.4621V12.4246V12.3872V12.3499V12.3125V12.2753V12.238V12.2008V12.1636V12.1265V12.0894V12.0524V12.0153V11.9783V11.9414V11.9044V11.8675V11.8306V11.7938V11.757V11.7202V11.6834V11.6466V11.6099V11.5731V11.5364V11.4997V11.4631V11.4264V11.3897V11.3531V11.3165V11.2799V11.2432V11.2066V11.17V11.1334V11.0969V11.0603V11.0237V10.9871V10.9505V10.9139V10.8773V10.8407V10.8041V10.7675V10.7309V10.6942V10.6576V10.6209V10.5843V10.5476V10.5109V10.4742V10.4374V10.4007V10.3639V10.3271V10.2903V10.2535V10.2166V10.1797V10.1428V10.1058V10.0688V10.0318V9.99479V9.95772V9.92061V9.88346V9.84628V9.80906V9.7718V9.7345V9.69716V9.65977V9.62235V9.58487V9.54735V9.50978V9.47217V9.4345V9.39678V9.35902V9.32119V9.28331V9.24538V9.20739V9.16934V9.13124V9.09307V9.05484V9.01654V8.97819V8.93976V8.90128V8.86272V8.82409V8.7854V8.74663V8.70779V8.66888V8.62989V8.59083V8.55169V8.51247V8.47318V8.4338V8.39434V8.35479V8.31517V8.27545V8.23565V8.19577V8.15579V8.11573V8.07557V8.03532V7.99498V7.95454V7.914V7.87337V7.83264V7.79181V7.75088V7.70985V7.66872V7.62748V7.58613V7.54468V7.50312V7.46146V7.41968V7.37779V7.33579V7.29367V7.25144V7.20909V7.16663V7.12405V7.08135V7.03852V6.99558V6.95251V6.90932V6.866V6.82256V6.77898V6.73528V6.69145V6.64749V6.60339V6.55916V6.51479V6.47029V6.42566V6.38088V6.33596V6.2909V6.24571V6.20036V6.15487V6.10924V6.06346V6.01753V5.97146V5.92523V5.87885V5.83232V5.78563V5.73879V5.6918V5.64464V5.59733V5.54986V5.50222V5.45443V5.40647V5.35834V5.31005V5.2616V5.21297V5.16418V5.11521V5.06608V5.01677V4.96729V4.91763V4.8678V4.81778V4.76759V4.71722V4.66667V4.61594V4.56502V4.51392V4.46263V4.41116V4.35949V4.30764V4.2556V4.20336V4.15093V4.09831V4.0455V3.99248V3.93927V3.88586V3.83225V3.77844V3.72443V3.67021V3.61579V3.56116V3.50633V3.45128V3.39603V3.34057V3.28489V3.22901V3.1729V3.11659V3.06005V3.0033V2.94633V2.88914V2.83173V2.77409V2.71624V2.65815V2.59984V2.54131V2.48254V2.42355V2.36432V2.30487V2.24518V2.18525V2.12509V2.0647V2.00406V1.94319V1.88208V1.82072V1.75913V1.69729V1.6352V1.57287V1.51029V1.44746V1.38438V1.32106V1.25748V1.19364V1.12955V1.06521V1.00061V0.935754V0.870637V0.805259V0.739621V0.673719V0.607554V0.541124V0.505105C41.7913 0.776747 52.5 11.8542 52.5 25.5Z" stroke="black"/>
<line x1="28.4363" y1="0.244302" x2="0.436253" y2="50.2443" stroke="black"/>
<line x1="28" y1="25.5" x2="14" y2="25.5" stroke="black"/>
<line x1="1" y1="50.5" y2="50.5" stroke="black"/>
<line x1="28.5" y1="51" x2="28.5" y2="50" stroke="black"/>
</svg>
